<svg xmlns="http://www.w3.org/2000/svg" width="33.347" height="32" viewBox="0 0 33.347 32"><defs><style>.a{fill:#3d3130;}</style></defs><g transform="translate(0 -10.34)"><path class="a" d="M33.2,22.342A2.887,2.887,0,0,0,30.41,20.32H22.08l-2.623-7.966a2.886,2.886,0,0,0-2.783-2.014h-.012a2.887,2.887,0,0,0-2.779,2.036L11.336,20.32h-8.4A2.93,2.93,0,0,0,1.22,25.626l6.8,4.912L5.4,38.482a2.887,2.887,0,0,0,1.053,3.282,2.886,2.886,0,0,0,3.447.01l6.808-4.921,6.727,4.913A2.931,2.931,0,0,0,27.954,38.5L25.4,30.538l6.738-4.921A2.887,2.887,0,0,0,33.2,22.342Zm-2.21,1.7-7.877,5.752L26.094,39.1a.977.977,0,0,1-1.506,1.087l-7.873-5.75L8.756,40.191a.977.977,0,0,1-1.5-1.1l3.063-9.3L2.364,24.042a.977.977,0,0,1,.572-1.769h9.825l2.982-9.3a.948.948,0,0,1,.926-.679h0a.947.947,0,0,1,.928.671l3.065,9.309H30.41a.977.977,0,0,1,.576,1.766Z"/></g></svg>