<svg xmlns="http://www.w3.org/2000/svg" width="25.01" height="24" viewBox="0 0 25.01 24"><defs><style>.a{fill:#ff9a27;}.b{fill:#ffb820;}</style></defs><g transform="translate(0 -10.34)"><path class="a" d="M211.359,19.341a2.166,2.166,0,0,0-2.089-1.516h-6.248l-1.967-5.975a2.165,2.165,0,0,0-2.087-1.51s-2.931,9.933-2.931,9.933l2.93,9.933,5.071,3.7a2.2,2.2,0,0,0,3.386-2.454l-1.939-5.966h.026l5.054-3.691A2.165,2.165,0,0,0,211.359,19.341Z" transform="translate(-186.461 0)"/><path class="b" d="M12.5,10.34a2.165,2.165,0,0,0-2.084,1.527L8.5,17.825H2.2A2.2,2.2,0,0,0,.915,21.8l5.076,3.669L4.047,31.455a2.2,2.2,0,0,0,3.386,2.454l5.071-3.7s0-19.866,0-19.866H12.5Z"/></g></svg>